<?xml version="1.0" encoding="iso-8859-1"?>
<!-- Uploaded to: SVG Repo, www.svgrepo.com, Generator: SVG Repo Mixer Tools -->
<svg version="1.1" id="Layer_1" xmlns="http://www.w3.org/2000/svg" xmlns:xlink="http://www.w3.org/1999/xlink" 
	 viewBox="0 0 511.989 511.989" xml:space="preserve">
<path style="fill:#DA4453;" d="M393.148,58.965c-15.25-28.516-33.516-42.968-54.297-42.968c-23.921,0-48.764,19.546-73.865,58.123
	c-3.211,4.938-6.219,9.875-8.992,14.641c-2.773-4.766-5.781-9.703-8.999-14.641c-25.086-38.577-49.937-58.123-73.858-58.123
	c-20.78,0-39.054,14.452-54.296,42.968c-11.397,21.343-7.288,36.671-1.835,45.765c9.827,16.39,31.796,27.437,67.162,33.749
	c27.155,4.859,55.89,5.578,70.6,5.578h0.008c0.414,0,0.82,0,1.219,0c0.406,0,0.812,0,1.227,0c14.711,0,43.445-0.719,70.601-5.578
	c35.358-6.312,57.327-17.359,67.171-33.749C400.429,95.636,404.554,80.308,393.148,58.965z"/>
<path style="fill:#8CC153;" d="M479.99,222.087c0-11.781-9.562-21.328-21.344-21.328H53.335c-11.781,0-21.335,9.547-21.335,21.328
	v252.572c0,11.781,9.554,21.327,21.335,21.327h405.312c11.781,0,21.344-9.546,21.344-21.327V222.087H479.99z"/>
<path style="fill:#A0D468;" d="M511.988,240.008c0,11.781-9.562,21.328-21.343,21.328H21.336C9.555,261.335,0,251.788,0,240.007
	V133.339c0-11.781,9.555-21.344,21.336-21.344h469.31c11.781,0,21.343,9.562,21.343,21.344v106.669H511.988z"/>
<rect x="202.664" y="111.992" style="fill:#ED5564;" width="106.68" height="149.32"/>
<polygon style="fill:#79A83D;" points="32,282.428 479.99,323.161 479.99,262.007 32,262.007 "/>
<rect x="202.664" y="261.321" style="fill:#DA4453;" width="106.68" height="234.67"/>
<polygon style="fill:#C63046;" points="202.66,297.943 309.338,307.646 309.338,262.007 202.66,262.007 "/>
</svg>